solid scoop
   facet normal 9.063078e-001 0.000000e+000 4.226182e-001
      outer loop
         vertex 1.281500e-009 9.715092e-002 1.000000e-001
         vertex 1.281500e-009 9.604755e-002 1.000000e-001
         vertex 4.663077e-002 1.188952e-001 7.589415e-019
      endloop
   endfacet
   facet normal 9.063078e-001 0.000000e+000 4.226182e-001
      outer loop
         vertex 4.663077e-002 1.188952e-001 7.589415e-019
         vertex 1.281500e-009 9.604755e-002 1.000000e-001
         vertex 4.663077e-002 1.177918e-001 -2.168404e-019
      endloop
   endfacet
   facet normal 9.063078e-001 0.000000e+000 4.226182e-001
      outer loop
         vertex 4.663077e-002 -1.188952e-001 9.757820e-019
         vertex 4.663077e-002 -1.177918e-001 -2.168404e-019
         vertex 1.281500e-009 -9.715092e-002 1.000000e-001
      endloop
   endfacet
   facet normal 9.063078e-001 0.000000e+000 4.226182e-001
      outer loop
         vertex 1.281500e-009 -9.715092e-002 1.000000e-001
         vertex 4.663077e-002 -1.177918e-001 -2.168404e-019
         vertex 1.281500e-009 -9.604755e-002 1.000000e-001
      endloop
   endfacet
   facet normal -1.000000e+000 -1.076525e-016 0.000000e+000
      outer loop
         vertex -1.000001e-003 -9.668462e-002 1.000000e-001
         vertex -1.000001e-003 9.668462e-002 1.000000e-001
         vertex -1.000001e-003 -9.668462e-002 0.000000e+000
      endloop
   endfacet
   facet normal -1.000000e+000 -1.076525e-016 0.000000e+000
      outer loop
         vertex -1.000001e-003 -9.668462e-002 0.000000e+000
         vertex -1.000001e-003 9.668462e-002 1.000000e-001
         vertex -1.000001e-003 9.668462e-002 0.000000e+000
      endloop
   endfacet
   facet normal -4.226182e-001 -9.063078e-001 0.000000e+000
      outer loop
         vertex 1.281500e-009 -9.715092e-002 1.000000e-001
         vertex -1.000001e-003 -9.668462e-002 1.000000e-001
         vertex 4.663077e-002 -1.188952e-001 -5.551115e-017
      endloop
   endfacet
   facet normal -4.226182e-001 -9.063078e-001 0.000000e+000
      outer loop
         vertex 4.663077e-002 -1.188952e-001 -5.551115e-017
         vertex -1.000001e-003 -9.668462e-002 1.000000e-001
         vertex -1.000001e-003 -9.668462e-002 -5.551115e-017
      endloop
   endfacet
   facet normal 4.226182e-001 9.063078e-001 0.000000e+000
      outer loop
         vertex 1.281500e-009 -9.604755e-002 1.000000e-001
         vertex 4.663077e-002 -1.177918e-001 0.000000e+000
         vertex 1.281500e-009 -9.604755e-002 0.000000e+000
      endloop
   endfacet
   facet normal 1.000000e+000 0.000000e+000 0.000000e+000
      outer loop
         vertex 1.281500e-009 9.604755e-002 1.000000e-001
         vertex 1.281500e-009 -9.604755e-002 1.000000e-001
         vertex 1.281500e-009 9.604755e-002 0.000000e+000
      endloop
   endfacet
   facet normal 1.000000e+000 0.000000e+000 0.000000e+000
      outer loop
         vertex 1.281500e-009 9.604755e-002 0.000000e+000
         vertex 1.281500e-009 -9.604755e-002 1.000000e-001
         vertex 1.281500e-009 -9.604755e-002 0.000000e+000
      endloop
   endfacet
   facet normal 4.226182e-001 -9.063078e-001 0.000000e+000
      outer loop
         vertex 4.663077e-002 1.177918e-001 -5.551115e-017
         vertex 1.281500e-009 9.604755e-002 1.000000e-001
         vertex 1.281500e-009 9.604755e-002 -5.551115e-017
      endloop
   endfacet
   facet normal -4.226182e-001 9.063078e-001 0.000000e+000
      outer loop
         vertex 4.663077e-002 1.188952e-001 -5.551115e-017
         vertex -1.000001e-003 9.668462e-002 -5.551115e-017
         vertex 1.281500e-009 9.715092e-002 1.000000e-001
      endloop
   endfacet
   facet normal -4.226182e-001 9.063078e-001 0.000000e+000
      outer loop
         vertex 1.281500e-009 9.715092e-002 1.000000e-001
         vertex -1.000001e-003 9.668462e-002 -5.551115e-017
         vertex -1.000001e-003 9.668462e-002 1.000000e-001
      endloop
   endfacet
   facet normal 0.000000e+000 0.000000e+000 -1.000000e+000
      outer loop
         vertex 4.663077e-002 -1.177918e-001 0.000000e+000
         vertex 4.663077e-002 -1.188952e-001 0.000000e+000
         vertex 1.281500e-009 -9.604755e-002 0.000000e+000
      endloop
   endfacet
   facet normal 0.000000e+000 0.000000e+000 -1.000000e+000
      outer loop
         vertex 1.281500e-009 -9.604755e-002 0.000000e+000
         vertex 4.663077e-002 -1.188952e-001 0.000000e+000
         vertex -1.000001e-003 -9.668462e-002 0.000000e+000
      endloop
   endfacet
   facet normal 0.000000e+000 0.000000e+000 -1.000000e+000
      outer loop
         vertex 1.281500e-009 -9.604755e-002 0.000000e+000
         vertex -1.000001e-003 -9.668462e-002 0.000000e+000
         vertex 1.281500e-009 9.604755e-002 0.000000e+000
      endloop
   endfacet
   facet normal 0.000000e+000 0.000000e+000 -1.000000e+000
      outer loop
         vertex 1.281500e-009 9.604755e-002 0.000000e+000
         vertex -1.000001e-003 -9.668462e-002 0.000000e+000
         vertex -1.000001e-003 9.668462e-002 0.000000e+000
      endloop
   endfacet
   facet normal 0.000000e+000 0.000000e+000 -1.000000e+000
      outer loop
         vertex 1.281500e-009 9.604755e-002 0.000000e+000
         vertex -1.000001e-003 9.668462e-002 0.000000e+000
         vertex 4.663077e-002 1.177918e-001 0.000000e+000
      endloop
   endfacet
   facet normal 0.000000e+000 0.000000e+000 -1.000000e+000
      outer loop
         vertex 4.663077e-002 1.177918e-001 0.000000e+000
         vertex -1.000001e-003 9.668462e-002 0.000000e+000
         vertex 4.663077e-002 1.188952e-001 0.000000e+000
      endloop
   endfacet
   facet normal 0.000000e+000 0.000000e+000 1.000000e+000
      outer loop
         vertex -1.000001e-003 -9.668462e-002 1.000000e-001
         vertex 1.281500e-009 -9.715092e-002 1.000000e-001
         vertex 1.281500e-009 -9.604755e-002 1.000000e-001
      endloop
   endfacet
   facet normal 0.000000e+000 0.000000e+000 1.000000e+000
      outer loop
         vertex -1.000001e-003 -9.668462e-002 1.000000e-001
         vertex 1.281500e-009 -9.604755e-002 1.000000e-001
         vertex -1.000001e-003 9.668462e-002 1.000000e-001
      endloop
   endfacet
   facet normal 0.000000e+000 0.000000e+000 1.000000e+000
      outer loop
         vertex -1.000001e-003 9.668462e-002 1.000000e-001
         vertex 1.281500e-009 -9.604755e-002 1.000000e-001
         vertex 1.281500e-009 9.604755e-002 1.000000e-001
      endloop
   endfacet
   facet normal 0.000000e+000 0.000000e+000 1.000000e+000
      outer loop
         vertex -1.000001e-003 9.668462e-002 1.000000e-001
         vertex 1.281500e-009 9.604755e-002 1.000000e-001
         vertex 1.281500e-009 9.715092e-002 1.000000e-001
      endloop
   endfacet
endsolid